<svg width="35" height="34" viewBox="0 0 35 34" fill="none" xmlns="http://www.w3.org/2000/svg">
<path d="M6.23062 7.77954L8.27954 5.73062C10.2113 3.79888 11.1771 2.83301 12.3774 2.83301C13.5776 2.83301 14.5435 3.79888 16.4752 5.73062L13.0604 9.14548L6.23062 15.9752L6.2306 15.9752C4.29887 14.0435 3.33301 13.0776 3.33301 11.8774C3.33301 10.6771 4.29888 9.71128 6.23062 7.77954L6.23062 7.77954Z" fill="#CE7D63"/>
<path d="M28.7687 26.2198L26.7198 28.2687C24.7881 30.2005 23.8222 31.1663 22.622 31.1663C21.4218 31.1663 20.4559 30.2005 18.5242 28.2688L18.5241 28.2687L25.3539 21.439L28.7687 18.0241C30.7005 19.9559 31.6663 20.9217 31.6663 22.122C31.6663 23.3222 30.7005 24.2881 28.7687 26.2198Z" fill="#CE7D63"/>
<path d="M16.6498 25.728L16.6498 25.728L27.1273 15.2505C25.7013 14.657 24.0123 13.6821 22.415 12.0848C20.8174 10.4872 19.8425 8.798 19.249 7.37187L8.77134 17.8495L8.77129 17.8496C7.95369 18.6672 7.54486 19.076 7.19328 19.5268C6.77853 20.0585 6.42295 20.6339 6.13282 21.2426C5.88688 21.7587 5.70405 22.3072 5.33839 23.4042L3.41014 29.1889C3.2302 29.7287 3.3707 30.3239 3.77307 30.7263C4.17544 31.1286 4.77061 31.2691 5.31045 31.0892L11.0952 29.161C12.1922 28.7953 12.7407 28.6125 13.2567 28.3665C13.8655 28.0764 14.4408 27.7208 14.9726 27.3061C15.4233 26.9545 15.8322 26.5456 16.6498 25.728Z" fill="#CE7D63"/>
<path d="M30.0347 12.3432C32.2102 10.1676 32.2102 6.64027 30.0347 4.46469C27.8591 2.28911 24.3318 2.28911 22.1562 4.46469L20.8995 5.72133C20.9167 5.77329 20.9346 5.82598 20.9531 5.87934C21.4137 7.20696 22.2828 8.94735 23.9176 10.5822C25.5525 12.2171 27.2929 13.0861 28.6205 13.5467C28.6736 13.5651 28.726 13.5829 28.7778 13.6L30.0347 12.3432Z" fill="#CE7D63"/>
</svg>
